<svg xmlns="http://www.w3.org/2000/svg" width="84.8" height="84.792" viewBox="0 0 84.8 84.792">
  <g id="cash" transform="translate(0 -0.023)">
    <path id="Path_4125" data-name="Path 4125" d="M107.34,372.017v13.132c7.48.33,5.322,1.652,18.335,7.5a12.317,12.317,0,0,0,9.581-.163l.008,0,25.567-9.154c.832-.383,5.029-2.663,3.373-6.909-1.935-4.528-6.915-2.639-7.332-2.5l-13.348,3.69" transform="translate(-89.562 -310.382)" fill="#eac092"/>
    <path id="Path_4126" data-name="Path 4126" d="M122.442,334.043l14.865,4.711a4.883,4.883,0,0,0,6.033-3.362h0c.738-2.594-.767-5.3-3.74-6.4l-13.187-4.476a11.209,11.209,0,0,0-9.519-4.6c-4.233,0-7.882,3.421-9.553,6.416v5.98" transform="translate(-89.563 -266.915)" fill="#fedbab"/>
    <path id="Path_4127" data-name="Path 4127" d="M154.406,387.169a1.633,1.633,0,0,1-.323-.033,1.606,1.606,0,0,1-.311-.094,1.671,1.671,0,0,1-.285-.153,1.609,1.609,0,0,1-.457-.457,1.531,1.531,0,0,1-.152-.286,1.556,1.556,0,0,1-.094-.31,1.591,1.591,0,0,1,0-.646,1.6,1.6,0,0,1,.094-.311,1.632,1.632,0,0,1,.609-.742,1.678,1.678,0,0,1,.285-.152,1.6,1.6,0,0,1,.311-.094,1.631,1.631,0,0,1,.646,0,1.555,1.555,0,0,1,.31.094,1.633,1.633,0,0,1,.287.152,1.609,1.609,0,0,1,.457.457,1.682,1.682,0,0,1,.152.285,1.73,1.73,0,0,1,.094.311,1.591,1.591,0,0,1,0,.646,1.674,1.674,0,0,1-.094.31,1.635,1.635,0,0,1-.152.286,1.61,1.61,0,0,1-.457.457,1.638,1.638,0,0,1-.287.153,1.557,1.557,0,0,1-.31.094A1.633,1.633,0,0,1,154.406,387.169Z" transform="translate(-127.451 -320.261)" fill="none"/>
    <rect id="Rectangle_17582" data-name="Rectangle 17582" width="6.274" height="17.795" transform="translate(11.504 59.21)" fill="#eaecf0"/>
    <rect id="Rectangle_17583" data-name="Rectangle 17583" width="9.848" height="20.882" transform="translate(1.656 59.21)" fill="#3688c8"/>
    <path id="Path_4128" data-name="Path 4128" d="M76.186,324.01l-.02-.049c-1.524-3.567-5.1-4.885-9.331-3.44L55.3,323.711a7.564,7.564,0,0,0-4.684-4.613l-.044-.016-12.684-4.3a13.082,13.082,0,0,0-10.554-4.856c-4.327,0-8.155,2.968-10.345,6.2H1.656A1.656,1.656,0,0,0,0,317.782v20.881a1.656,1.656,0,0,0,1.656,1.656H11.5a1.656,1.656,0,0,0,1.656-1.656v-1.43h4.618a1.656,1.656,0,0,0,1.656-1.656V335.1c2.692.235,3.577.745,6.05,2.171a100.227,100.227,0,0,0,9.95,5.08l.073.031a14.867,14.867,0,0,0,5.329,1,13.2,13.2,0,0,0,5.487-1.175l25.5-9.132c.045-.016.09-.034.134-.055C74.4,331.9,78.032,328.744,76.186,324.01Zm-66.339,13H3.312V319.438H9.848Zm6.274-3.086H13.16V319.438h2.962Zm54.516-3.933-25.493,9.128-.075.029-.067.029a10.735,10.735,0,0,1-8.248.141,95.935,95.935,0,0,1-9.616-4.912c-2.71-1.563-4.016-2.316-7.7-2.621v-13.34c1.57-2.573,4.614-5.207,7.9-5.207a9.557,9.557,0,0,1,8.108,3.809,1.656,1.656,0,0,0,.879.7l13.163,4.468c2.1.789,3.213,2.589,2.7,4.385a3.227,3.227,0,0,1-3.965,2.228l-14.839-4.7a1.656,1.656,0,0,0-1,3.158l14.865,4.711.047.014a6.5,6.5,0,0,0,4.972-.578,6.5,6.5,0,0,0,3.107-3.924q.057-.2.1-.4l12.436-3.445c1.8-.613,4.154-.835,5.2,1.583C74.2,328.076,71.372,329.638,70.638,329.988Z" transform="translate(0 -258.572)" fill="none"/>
    <path id="Path_4129" data-name="Path 4129" d="M72.883,24.733l-14.71-14.71L39.729,28.466,71.245,59.983l17.4-17.4" transform="translate(-33.149 -8.344)" fill="#26cfad"/>
    <path id="Path_4130" data-name="Path 4130" d="M150.8,113.962h0l0-.01a7.785,7.785,0,1,0,8.316,7.962" transform="translate(-119.772 -95.059)" fill="#ffd36c"/>
    <path id="Path_4131" data-name="Path 4131" d="M225.122,46.855V33.723c-7.48-.33-5.322-1.652-18.335-7.5a12.317,12.317,0,0,0-9.581.163l-.008,0-7.714,2.762,7.959,7.959" transform="translate(-158.1 -21.109)" fill="#eac092"/>
    <path id="Path_4132" data-name="Path 4132" d="M39.729,89.881l6.253-6.253a8.852,8.852,0,0,1,0,12.505Z" transform="translate(-33.148 -69.758)" fill="#00b192"/>
    <path id="Path_4133" data-name="Path 4133" d="M192.264,260.887a8.852,8.852,0,0,1,12.505,0l-6.253,6.253Z" transform="translate(-160.42 -215.5)" fill="#00b192"/>
    <path id="Path_4134" data-name="Path 4134" d="M113.333,16.276l6.253-6.253,6.253,6.253A8.852,8.852,0,0,1,113.333,16.276Z" transform="translate(-94.563 -8.344)" fill="#00b192"/>
    <path id="Path_4135" data-name="Path 4135" d="M288.537,182.048a8.854,8.854,0,0,0,2.056,9.277l5.213-5.213" transform="translate(-240.306 -151.877)" fill="#00b192"/>
    <path id="Path_4136" data-name="Path 4136" d="M207.273,97.483l-14.865-4.711a4.883,4.883,0,0,0-6.033,3.362h0c-.738,2.594.767,5.3,3.74,6.4l13.192,4.477-.005,0a11.209,11.209,0,0,0,9.519,4.6c4.233,0,7.882-3.421,9.553-6.416V99.21" transform="translate(-155.353 -77.231)" fill="#fedbab"/>
    <path id="Path_4137" data-name="Path 4137" d="M340.906,126.81a1.632,1.632,0,0,1-.323-.033,1.673,1.673,0,0,1-.31-.094,1.636,1.636,0,0,1-.287-.152,1.61,1.61,0,0,1-.457-.457,1.636,1.636,0,0,1-.152-.287,1.554,1.554,0,0,1-.094-.31,1.59,1.59,0,0,1,0-.646,1.6,1.6,0,0,1,.094-.311,1.682,1.682,0,0,1,.152-.285,1.61,1.61,0,0,1,.457-.457,1.635,1.635,0,0,1,.287-.152,1.555,1.555,0,0,1,.31-.094,1.65,1.65,0,0,1,.957.094,1.679,1.679,0,0,1,.285.152,1.656,1.656,0,0,1,.609.742,1.611,1.611,0,0,1,.1.311,1.673,1.673,0,0,1,0,.646,1.561,1.561,0,0,1-.1.31,1.531,1.531,0,0,1-.152.287,1.61,1.61,0,0,1-.457.457,1.68,1.68,0,0,1-.285.152,1.752,1.752,0,0,1-.31.094A1.661,1.661,0,0,1,340.906,126.81Z" transform="translate(-283.062 -103.024)" fill="none"/>
    <rect id="Rectangle_17584" data-name="Rectangle 17584" width="6.274" height="17.795" transform="translate(67.022 10.376)" fill="#eaecf0"/>
    <rect id="Rectangle_17585" data-name="Rectangle 17585" width="9.848" height="20.882" transform="translate(73.296 7.289)" fill="#3688c8"/>
    <path id="Path_4138" data-name="Path 4138" d="M107.917,5.633H98.069a1.656,1.656,0,0,0-1.656,1.656v1.43H91.795a1.656,1.656,0,0,0-1.656,1.656v.477c-2.692-.235-3.577-.745-6.05-2.171a100.218,100.218,0,0,0-9.95-5.08l-.073-.031a14.091,14.091,0,0,0-10.815.17L56.586,6.126,50.968.508a1.656,1.656,0,0,0-2.342,0L30.182,18.952a1.643,1.643,0,0,0,0,2.342L61.7,52.81a1.79,1.79,0,0,0,2.342,0L80.879,35.972c.438.038.892.058,1.363.058,4.327,0,8.155-2.968,10.344-6.2h15.331a1.656,1.656,0,0,0,1.656-1.656V7.289A1.656,1.656,0,0,0,107.917,5.633ZM54,20.993a7.333,7.333,0,0,0,4.963,5.861l.044.016,3.312,1.124a6.129,6.129,0,1,1-8.318-7Zm3.313-6.467a6.492,6.492,0,0,0-2.7,2.851A9.44,9.44,0,1,0,65.466,29.062l5.592,1.9a10.574,10.574,0,0,0,1.754,8.394L69.03,43.137a10.525,10.525,0,0,0-12.321,0L39.857,26.284a10.525,10.525,0,0,0,0-12.322l3.779-3.779a10.525,10.525,0,0,0,12.322,0l3.582,3.582A6.536,6.536,0,0,0,57.311,14.526ZM75.2,36.968a7.244,7.244,0,0,1-1.058-3.444A12.878,12.878,0,0,0,77.062,35.1ZM49.8,4.022,53.572,7.8a7.221,7.221,0,0,1-7.55,0ZM37.47,16.348a7.221,7.221,0,0,1,0,7.55L33.7,20.123ZM62.87,49.3,59.1,45.523a7.211,7.211,0,0,1,7.548,0ZM82.242,32.718a12.055,12.055,0,0,1-1.728-.122h-.006a9.486,9.486,0,0,1-6.135-3.357c-.034-.05-.178-.238-.2-.269a1.65,1.65,0,0,0-.913-.759L60.092,23.74c-2.1-.789-3.212-2.588-2.7-4.383v-.008a3.227,3.227,0,0,1,3.963-2.222l14.839,4.7a1.656,1.656,0,0,0,1-3.158l-11.8-3.74-.1-.1,0,0-6.11-6.11,5.252-1.881.057-.022.017-.007.067-.029a10.734,10.734,0,0,1,8.248-.141,95.939,95.939,0,0,1,9.617,4.912c2.71,1.563,4.016,2.316,7.7,2.621V27.51C88.569,30.084,85.524,32.718,82.242,32.718ZM93.451,12.031h2.962V26.514H93.451Zm12.809,14.483H99.725V8.945h6.535Z" transform="translate(-24.773)" fill="none"/>
  </g>
</svg>
