<svg xmlns="http://www.w3.org/2000/svg" width="126.088" height="96.998" viewBox="0 0 126.088 96.998">
  <g id="computer" transform="translate(2 2)">
    <path id="Path_31820" data-name="Path 31820" d="M0,120H21.937v7.154H0Zm0,0" transform="translate(0 -91.387)" fill="#f2ae1b" stroke="#fff" stroke-width="4"/>
    <path id="Path_31821" data-name="Path 31821" d="M21.937,30H3.576A3.576,3.576,0,0,0,0,33.576v10.73H21.937Zm0,0" transform="translate(0 -22.846)" fill="#f2ae1b" stroke="#fff" stroke-width="4"/>
    <path id="Path_31822" data-name="Path 31822" d="M21.937,201.461V180H0v46.5a3.576,3.576,0,0,0,3.576,3.576H39.344A3.576,3.576,0,0,0,42.92,226.5v-10.73H36.244A14.323,14.323,0,0,1,21.937,201.461Zm-.476,21.461a3.576,3.576,0,1,1,3.576-3.576A3.576,3.576,0,0,1,21.461,222.922Zm0,0" transform="translate(0 -137.078)" fill="#f2ae1b" stroke="#fff" stroke-width="4"/>
    <path id="Path_31823" data-name="Path 31823" d="M207.842,0H129.154A7.161,7.161,0,0,0,122,7.154V64.383a7.161,7.161,0,0,0,7.154,7.154h25.037V85.844h-7.154a3.577,3.577,0,1,0,0,7.154h42.922a3.577,3.577,0,0,0,0-7.154H182.8V71.535h25.037A7.161,7.161,0,0,0,215,64.383V7.154A7.161,7.161,0,0,0,207.842,0Zm0,0" transform="translate(-92.909)" fill="#25408f" stroke="#fff" stroke-width="4"/>
  </g>
</svg>
