<svg xmlns="http://www.w3.org/2000/svg" width="21.033" height="14.018" viewBox="0 0 21.033 14.018">
  <path id="coupon" d="M14.3,86.953a.342.342,0,0,1,0,.484l-3.351,3.351a.342.342,0,0,1-.484-.484l3.351-3.351A.342.342,0,0,1,14.3,86.953Zm-.13,2.8a.677.677,0,1,1-.677.677.678.678,0,0,1,.677-.677Zm-.007.677c0,.008.014.008.014,0S14.159,90.426,14.159,90.434Zm-2.666-3.351a.677.677,0,1,1-.677-.677.678.678,0,0,1,.677.677Zm-.677-.007a.007.007,0,0,0,0,.014A.007.007,0,0,0,10.816,87.076ZM19.164,82H8.278a.342.342,0,1,0,0,.684H19.164a.685.685,0,0,1,.684.684v10.78a.685.685,0,0,1-.684.684H6.246v-.725a.342.342,0,1,0-.684,0v.725H1.369a.685.685,0,0,1-.684-.684V92.264a.673.673,0,0,1,.352-.6,3.3,3.3,0,0,0,0-5.814.673.673,0,0,1-.352-.6V83.369a.685.685,0,0,1,.684-.684H5.561v.725a.342.342,0,1,0,.684,0V82.342A.342.342,0,0,0,5.9,82H1.369A1.37,1.37,0,0,0,0,83.369v1.885a1.356,1.356,0,0,0,.714,1.2,2.612,2.612,0,0,1,0,4.607A1.356,1.356,0,0,0,0,92.264v1.885a1.37,1.37,0,0,0,1.369,1.369h17.8a1.37,1.37,0,0,0,1.369-1.369V83.369A1.37,1.37,0,0,0,19.164,82ZM6.246,85.995a.342.342,0,1,0-.684,0v1.34a.342.342,0,1,0,.684,0ZM5.9,89.841a.342.342,0,0,0-.342.342v1.34a.342.342,0,1,0,.684,0v-1.34A.342.342,0,0,0,5.9,89.841Z" transform="translate(0.25 -81.75)" fill="#d3dcf8" stroke="#d3dcf8" stroke-width="0.5"/>
</svg>
