<svg id="Group_7855" data-name="Group 7855" xmlns="http://www.w3.org/2000/svg" width="54" height="70.603" viewBox="0 0 54 70.603">
  <circle id="Ellipse_126" data-name="Ellipse 126" cx="27" cy="27" r="27" transform="translate(0 16.603)" fill="#b0b7cc"/>
  <g id="Flat" transform="translate(0.399)">
    <g id="Group_337" data-name="Group 337">
      <path id="Path_1590" data-name="Path 1590" d="M91.377,262.682l-6.747-6.747L72.729,248h-11.9l-11.9,7.934-6.747,6.747A7.438,7.438,0,0,0,40,267.941v6.093a3.719,3.719,0,0,0,3.719,3.719h3.223l.992-.992H85.622l.992.992h3.223a3.719,3.719,0,0,0,3.719-3.719v-6.093a7.438,7.438,0,0,0-2.179-5.26Z" transform="translate(-40 -220.23)" fill="#25408f"/>
      <path id="Path_1591" data-name="Path 1591" d="M219.9,212.959l-5.951,5.951L208,212.959l.992-4.959h9.918Z" transform="translate(-187.173 -185.189)" fill="#ffd4cf"/>
      <path id="Path_1592" data-name="Path 1592" d="M222.919,210.44l-.488-2.44h-9.918l-.493,2.467,3.449,1.725a4.463,4.463,0,0,0,4.012-.01Z" transform="translate(-190.694 -185.189)" fill="#fbb8b0"/>
      <path id="Path_1593" data-name="Path 1593" d="M181.323,91.967h-1.488V88H163.967v3.967h-1.488A2.479,2.479,0,0,0,160,94.447v.992a2.479,2.479,0,0,0,2.479,2.479h1.488v1.669a3.719,3.719,0,0,0,2.056,3.327l4.763,2.381a2.479,2.479,0,0,0,2.229-.006l4.782-2.422a3.719,3.719,0,0,0,2.039-3.318V97.918h1.488a2.479,2.479,0,0,0,2.479-2.479v-.992A2.479,2.479,0,0,0,181.323,91.967Z" transform="translate(-145.123 -80.066)" fill="#ffd4cf"/>
      <g id="Group_335" data-name="Group 335" transform="translate(21.819 12.893)">
        <path id="Path_1594" data-name="Path 1594" d="M216,128h1.984v1.984H216Z" transform="translate(-216 -128)" fill="#ae7069"/>
        <path id="Path_1595" data-name="Path 1595" d="M280,128h1.984v1.984H280Z" transform="translate(-272.066 -128)" fill="#ae7069"/>
      </g>
      <path id="Path_1596" data-name="Path 1596" d="M234.975,182.479A2.732,2.732,0,0,1,232,180h1.984c0,.175.376.5.992.5s.992-.321.992-.5h1.984A2.732,2.732,0,0,1,234.975,182.479Z" transform="translate(-208.197 -160.66)" fill="#ae7069"/>
      <path id="Path_1597" data-name="Path 1597" d="M190.2,24h5.455a6.2,6.2,0,0,1,6.2,6.2v1.736H184V30.2A6.2,6.2,0,0,1,190.2,24Z" transform="translate(-166.148 -24)" fill="#25408f"/>
      <path id="Path_1598" data-name="Path 1598" d="M198,66.429l-2.32-1.547a4.959,4.959,0,0,0-5.5,0l-2.321,1.547A2.479,2.479,0,0,1,184,64.366V63.048l4.11-2.283a9.918,9.918,0,0,1,9.633,0l4.11,2.283v1.318A2.479,2.479,0,0,1,198,66.429Z" transform="translate(-166.148 -55.114)" fill="#fec46f"/>
      <rect id="Rectangle_518" data-name="Rectangle 518" width="35.952" height="25.919" rx="10" transform="translate(8.825 31.771)" fill="#f2ae1b"/>
      <path id="Path_1599" data-name="Path 1599" d="M99.967,432H96v6.943h10.91A6.942,6.942,0,0,0,99.967,432Z" transform="translate(-89.058 -381.419)" fill="#ffd4cf"/>
      <path id="Path_1600" data-name="Path 1600" d="M224,280h7.934v8.926H224Z" transform="translate(-201.189 -248.263)" fill="#fa7d29"/>
      <path id="Path_1601" data-name="Path 1601" d="M224,440h7.934v5.951H224Z" transform="translate(-201.189 -388.428)" fill="#fa7d29"/>
      <path id="Path_1602" data-name="Path 1602" d="M334.942,432h3.967v6.943H328A6.942,6.942,0,0,1,334.942,432Z" transform="translate(-292.296 -381.419)" fill="#ffd4cf"/>
      <g id="Group_336" data-name="Group 336" transform="translate(11.901 34.712)">
        <path id="Path_1603" data-name="Path 1603" d="M136,304h1.984v1.984H136Z" transform="translate(-136 -304)" fill="#fffffe"/>
        <path id="Path_1604" data-name="Path 1604" d="M168,304h3.967v1.984H168Z" transform="translate(-164.033 -304)" fill="#fffffe"/>
        <path id="Path_1605" data-name="Path 1605" d="M136,336h7.934v1.984H136Z" transform="translate(-136 -332.033)" fill="#fffffe"/>
        <path id="Path_1606" data-name="Path 1606" d="M322.479,312h3.471v2.479a2.479,2.479,0,0,1-2.479,2.479H320v-2.479A2.479,2.479,0,0,1,322.479,312Z" transform="translate(-297.189 -311.008)" fill="#fffffe"/>
      </g>
      <path id="Path_1607" data-name="Path 1607" d="M416,432h2.975v1.983H416Z" transform="translate(-369.387 -381.419)" fill="#36222b"/>
      <path id="Path_1608" data-name="Path 1608" d="M72,432h2.975v1.983H72Z" transform="translate(-68.033 -381.419)" fill="#36222b"/>
    </g>
  </g>
</svg>
