<svg xmlns="http://www.w3.org/2000/svg" width="19.342" height="19.342" viewBox="0 0 19.342 19.342">
  <g id="Group_516" data-name="Group 516" transform="translate(0.5 0.5)">
    <path id="Icon_awesome-sticky-note" data-name="Icon awesome-sticky-note" d="M12.774,14.042h5.568V3.233a.98.98,0,0,0-.983-.983H.983A.98.98,0,0,0,0,3.233V19.61a.98.98,0,0,0,.983.983H11.792V15.024A.986.986,0,0,1,12.774,14.042Zm5.282,2.252-4.012,4.012a.982.982,0,0,1-.7.287H13.1V15.352h5.241v.25A.979.979,0,0,1,18.056,16.293Z" transform="translate(0 -2.25)" fill="none" stroke="#d3dcf8" stroke-width="1"/>
    <line id="Line_56" data-name="Line 56" x1="10" transform="translate(4.171 4.671)" fill="none" stroke="#d3dcf8" stroke-linecap="round" stroke-width="1"/>
    <line id="Line_57" data-name="Line 57" x1="6.779" transform="translate(4.171 7.671)" fill="none" stroke="#d3dcf8" stroke-linecap="round" stroke-width="1"/>
  </g>
</svg>
