<svg xmlns="http://www.w3.org/2000/svg" width="132.727" height="80.691" viewBox="0 0 132.727 80.691">
  <g id="Group_40926" data-name="Group 40926" transform="translate(2 2.516)">
    <g id="delivery">
      <path id="Path_31831" data-name="Path 31831" d="M26.543,19.611a3.31,3.31,0,0,1,3.77,3.519,3.77,3.77,0,0,1-3.753,3.77H3.771a3.771,3.771,0,1,0,0,7.542H37.706a3.771,3.771,0,1,1,.015,7.542H3.771a3.771,3.771,0,0,0,0,7.542h8.3V60.841a3.77,3.77,0,0,0,3.766,3.767h7.58a14.458,14.458,0,0,0,28.333,0H90.043a14.458,14.458,0,0,0,28.333,0h6.575a3.77,3.77,0,0,0,3.775-3.766V38.215c0-11.065-11.672-11.8-11.682-11.817H88a3.77,3.77,0,0,1-3.77-3.77V0H15.839a3.77,3.77,0,0,0-3.766,3.77v8.3H7.543a3.771,3.771,0,0,0,0,7.542ZM109.1,56.834a6.915,6.915,0,1,1-7.535-1.5,6.914,6.914,0,0,1,7.535,1.5Zm-66.624,0a6.915,6.915,0,1,1-7.535-1.5,6.914,6.914,0,0,1,7.535,1.5Zm0,0" transform="translate(0.001)" fill="#25408f" stroke="#fff" stroke-width="4" fill-rule="evenodd"/>
    </g>
    <g id="delivery-2" data-name="delivery" transform="translate(92.765 0.001)">
      <path id="Path_31831-2" data-name="Path 31831" d="M91.765.759c11.16,2.589,15.429,9.115,20.782,18.1H91.765Z" transform="translate(-91.765 -0.759)" fill="#f2ae1b" stroke="#fff" stroke-width="4" fill-rule="evenodd"/>
    </g>
  </g>
</svg>
