<svg xmlns="http://www.w3.org/2000/svg" width="112.458" height="104.851" viewBox="0 0 112.458 104.851">
  <g id="Icon_ionic-md-pricetags" data-name="Icon ionic-md-pricetags" transform="translate(3 3)">
    <g id="Path_31852" data-name="Path 31852" transform="translate(30.747 6.496)" fill="#f2ae1b">
      <path d="M 22.95912170410156 93.85435485839844 C 20.70200347900391 93.85435485839844 17.26220321655273 92.69949340820312 15.05496788024902 90.49225616455078 L 13.97087383270264 89.40817260742188 L 15.07839202880859 88.3480224609375 L 65.18149566650391 40.38747787475586 L 65.18149566650391 7.523433685302734 L 65.18149566650391 3.969316005706787 L 67.72792053222656 6.448727607727051 L 76.75753021240234 15.24072742462158 L 77.21111297607422 15.68236255645752 L 77.21111297607422 16.31543350219727 L 77.21111297607422 46.73099899291992 L 77.21111297607422 47.37833786010742 L 76.74009704589844 47.82241058349609 L 31.46465682983398 90.50865936279297 C 28.99673461914062 92.96307373046875 25.0286808013916 93.85435485839844 22.95912170410156 93.85435485839844 Z" stroke="none"/>
      <path d="M 66.68148803710938 7.5234375 L 66.68148803710938 41.02807998657227 L 16.11562347412109 89.43159484863281 C 18.01659393310547 91.33257293701172 21.05815124511719 92.35434722900391 22.95911407470703 92.35434722900391 C 24.86008453369141 92.35434722900391 28.37688827514648 91.47514343261719 30.42044830322266 89.43159484863281 L 75.71111297607422 46.73099899291992 L 75.71111297607422 16.31543731689453 L 66.68148803710938 7.5234375 M 63.68148803710938 0.4151992797851562 L 78.71111297607422 15.04930877685547 L 78.71111297607422 48.02568054199219 L 32.50789260864258 91.58663940429688 C 30.95044708251953 93.12872314453125 28.99165725708008 94.01840972900391 27.61806488037109 94.49411773681641 C 26.03950500488281 95.04080200195312 24.34138488769531 95.35434722900391 22.95911407470703 95.35434722900391 C 20.47227478027344 95.35434722900391 16.60614013671875 94.16475677490234 13.99430084228516 91.55291748046875 L 11.82612609863281 89.38474273681641 L 63.68148803710938 39.74687576293945 L 63.68148803710938 0.4151992797851562 Z" stroke="none" fill="#fff"/>
    </g>
    <g id="Path_31853" data-name="Path 31853" transform="translate(-2.249 -3.375)" fill="#25408f">
      <path d="M 41.43642044067383 96.12169647216797 C 39.20293426513672 96.12169647216797 35.77070999145508 94.95051574707031 33.53225708007812 92.71208190917969 L 4.115570545196533 63.3429069519043 C 1.890983104705811 61.11833190917969 0.6657456159591675 57.95436859130859 0.7531455755233765 54.66145706176758 C 0.8369991183280945 51.6985969543457 1.99530041217804 49.0173225402832 4.102861881256104 46.90400695800781 L 46.79274368286133 2.33739447593689 L 47.23567199707031 1.875006914138794 L 47.87596893310547 1.875006914138794 L 85.89542388916016 1.875006914138794 L 86.51674652099609 1.875006914138794 L 86.95608520507812 2.31434440612793 L 94.55996704101562 9.918231964111328 L 94.99930572509766 10.35756969451904 L 94.99930572509766 10.97889423370361 L 94.99930572509766 48.99834442138672 L 94.99930572509766 49.63960647583008 L 94.53573608398438 50.08269500732422 L 49.92224884033203 92.72444152832031 C 48.56225967407227 94.07872772216797 46.82501220703125 94.88097381591797 45.6054573059082 95.31577301025391 C 44.16888427734375 95.82794189453125 42.64933395385742 96.12169647216797 41.43642044067383 96.12169647216797 Z M 76.39055633544922 14.37985706329346 C 73.02485656738281 14.37985706329346 70.28666687011719 17.11805725097656 70.28666687011719 20.48375701904297 C 70.28666687011719 23.85036849975586 73.02439880371094 26.58929443359375 76.38951873779297 26.58929443359375 C 76.98628234863281 26.58929443359375 77.59356689453125 26.5036449432373 78.19451904296875 26.33471870422363 C 80.14213562011719 25.78634452819824 81.69314575195312 24.23533248901367 82.24168395996094 22.28710746765137 C 82.78809356689453 20.34330749511719 82.43112945556641 18.3432445526123 81.26216888427734 16.80036926269531 C 80.0966796875 15.26210689544678 78.321044921875 14.37985706329346 76.39055633544922 14.37985706329346 Z" stroke="none"/>
      <path d="M 47.8759651184082 3.375 L 5.175361633300781 47.95280075073242 C 3.274391174316406 49.8537712097168 2.323905944824219 52.18245697021484 2.252616882324219 54.70125961303711 C 2.18133544921875 57.38638687133789 3.131820678710938 60.23784255981445 5.175361633300781 62.28140258789062 L 34.59292221069336 91.65141296386719 C 36.49389266967773 93.55238342285156 39.53544998168945 94.62168884277344 41.43642044067383 94.62168884277344 C 43.3373908996582 94.62168884277344 46.83043670654297 93.69496154785156 48.87397766113281 91.65141296386719 L 93.49930572509766 48.99834442138672 L 93.49930572509766 10.97888946533203 L 85.89542388916016 3.375 L 47.8759651184082 3.375 M 76.38951873779297 28.08929443359375 C 72.18482971191406 28.08929443359375 68.78666687011719 24.68529510498047 68.78666687011719 20.48374176025391 C 68.78666687011719 16.27785491943359 72.18464660644531 12.87985992431641 76.39054870605469 12.87985992431641 C 81.30931854248047 12.87985992431641 85.13501739501953 17.53724670410156 83.68553161621094 22.69362640380859 C 82.99643707275391 25.14112854003906 81.04793548583984 27.08963012695312 78.60043334960938 27.77874755859375 C 77.84856414794922 27.99009704589844 77.10727691650391 28.08929443359375 76.38951873779297 28.08929443359375 M 46.59536361694336 0.375 L 87.1380615234375 0.375 L 96.49930572509766 9.736244201660156 L 96.49930572509766 50.2808723449707 L 50.96879196166992 93.79913330078125 C 49.41396713256836 95.3421630859375 47.46982574462891 96.24355316162109 46.10919189453125 96.72866058349609 C 44.517333984375 97.29618835449219 42.81417846679688 97.62168884277344 41.43642044067383 97.62168884277344 C 40.0684928894043 97.62168884277344 38.45024871826172 97.26824188232422 36.87980651855469 96.62648773193359 C 35.68062210083008 96.13642883300781 33.94239044189453 95.2435302734375 32.47160720825195 93.77272796630859 L 3.055763244628906 64.40443420410156 C 0.5405654907226562 61.88921737670898 -0.8446197509765625 58.32415771484375 -0.7463226318359375 54.62164306640625 L -0.7461776733398438 54.61638641357422 C -0.651519775390625 51.27187347412109 0.6539764404296875 48.24334716796875 3.029617309570312 45.85597610473633 L 46.59536361694336 0.375 Z M 76.38951873779297 25.08930206298828 C 76.84903717041016 25.08930206298828 77.31974792480469 25.02247619628906 77.78857421875 24.89068603515625 C 79.23632049560547 24.48305511474609 80.38986206054688 23.32952880859375 80.79780578613281 21.88058471679688 C 81.22200775146484 20.37155914306641 80.96243286132812 18.88864135742188 80.06657409667969 17.70623016357422 C 79.18717956542969 16.54554748535156 77.84732055664062 15.87985992431641 76.39054870605469 15.87985992431641 C 73.85195922851562 15.87985992431641 71.78666687011719 17.94515991210938 71.78666687011719 20.48374176025391 C 71.78666687011719 23.02326202392578 73.85149383544922 25.08930206298828 76.38951873779297 25.08930206298828 Z" stroke="none" fill="#fff"/>
    </g>
  </g>
</svg>
