<svg xmlns="http://www.w3.org/2000/svg" width="12.551" height="12.573" viewBox="0 0 12.551 12.573">
  <path id="Icon_feather-phone-call" data-name="Icon feather-phone-call" d="M10.289,3.7a2.752,2.752,0,0,1,2.174,2.174M10.289,1.5a4.954,4.954,0,0,1,4.376,4.37m-.55,4.392v1.651a1.1,1.1,0,0,1-1.2,1.1,10.893,10.893,0,0,1-4.75-1.69,10.733,10.733,0,0,1-3.3-3.3A10.893,10.893,0,0,1,3.172,3.25a1.1,1.1,0,0,1,1.1-1.2H5.919A1.1,1.1,0,0,1,7.02,3a7.067,7.067,0,0,0,.385,1.547,1.1,1.1,0,0,1-.248,1.161l-.7.7a8.807,8.807,0,0,0,3.3,3.3l.7-.7a1.1,1.1,0,0,1,1.161-.248,7.067,7.067,0,0,0,1.547.385A1.1,1.1,0,0,1,14.115,10.263Z" transform="translate(-2.667 -0.948)" fill="none" stroke="#fff" stroke-linecap="round" stroke-linejoin="round" stroke-width="1"/>
</svg>
