<svg xmlns="http://www.w3.org/2000/svg" width="20.606" height="20.606" viewBox="0 0 20.606 20.606">
  <path id="Icon_metro-copyright" data-name="Icon metro-copyright" d="M20.2,17.1V18.56a1.7,1.7,0,0,1-.49,1.194,3.253,3.253,0,0,1-1.261.812A9.221,9.221,0,0,1,16.864,21a8.806,8.806,0,0,1-1.576.148,6.2,6.2,0,0,1-4.595-1.865,6.336,6.336,0,0,1-1.845-4.642A6.234,6.234,0,0,1,15.22,8.27a9.467,9.467,0,0,1,1.013.06,8.656,8.656,0,0,1,1.248.241,6.4,6.4,0,0,1,1.241.456,2.672,2.672,0,0,1,.926.758,1.724,1.724,0,0,1,.376,1.087v1.462a.19.19,0,0,1-.215.215H18.225a.19.19,0,0,1-.215-.215V11.4q0-.577-.879-.906a5.222,5.222,0,0,0-1.845-.329,4.076,4.076,0,0,0-3.065,1.227,4.391,4.391,0,0,0-1.187,3.186,4.725,4.725,0,0,0,1.227,3.347,4.087,4.087,0,0,0,3.132,1.321,5.684,5.684,0,0,0,1.851-.322q.939-.322.939-.885V17.1a.209.209,0,0,1,.06-.154.193.193,0,0,1,.141-.06h1.6a.216.216,0,0,1,.148.06.2.2,0,0,1,.067.154ZM15.073,6.124a8.346,8.346,0,0,0-3.334.684,8.467,8.467,0,0,0-4.568,4.568,8.464,8.464,0,0,0,0,6.667,8.467,8.467,0,0,0,4.568,4.568,8.464,8.464,0,0,0,6.667,0,8.467,8.467,0,0,0,4.568-4.568,8.464,8.464,0,0,0,0-6.667,8.467,8.467,0,0,0-4.568-4.568,8.345,8.345,0,0,0-3.334-.684Zm10.3,8.586a10.079,10.079,0,0,1-1.382,5.172,10.256,10.256,0,0,1-3.75,3.75,10.079,10.079,0,0,1-5.172,1.382A10.079,10.079,0,0,1,9.9,23.631a10.256,10.256,0,0,1-3.75-3.75A10.079,10.079,0,0,1,4.77,14.71,10.079,10.079,0,0,1,6.152,9.538,10.256,10.256,0,0,1,9.9,5.789a10.079,10.079,0,0,1,5.172-1.382,10.079,10.079,0,0,1,5.172,1.382,10.256,10.256,0,0,1,3.75,3.75A10.079,10.079,0,0,1,25.375,14.71Z" transform="translate(-4.77 -4.407)" fill="#25408f"/>
</svg>
