<svg xmlns="http://www.w3.org/2000/svg" width="17.048" height="11.508" viewBox="0 0 17.048 11.508">
  <path id="Icon_zocial-email" data-name="Icon zocial-email" d="M.072,14.557V5.087q0-.016.049-.312L5.695,9.543.138,14.886a1.393,1.393,0,0,1-.066-.329ZM.812,4.117a.708.708,0,0,1,.279-.049H16.1a.931.931,0,0,1,.3.049L10.807,8.9l-.74.592L8.6,10.693l-1.463-1.2L6.4,8.9ZM.828,15.527l5.606-5.376L8.6,11.91l2.17-1.759,5.606,5.376a.789.789,0,0,1-.279.049H1.091a.745.745,0,0,1-.263-.049ZM11.514,9.543l5.557-4.768a.981.981,0,0,1,.049.312v9.469a1.26,1.26,0,0,1-.049.329Z" transform="translate(-0.072 -4.068)" fill="#fff"/>
</svg>
