<svg xmlns="http://www.w3.org/2000/svg" width="14.725" height="14.753" viewBox="0 0 14.725 14.753">
  <path id="Icon_feather-phone-call" data-name="Icon feather-phone-call" d="M12.288,4.32A3.525,3.525,0,0,1,15.073,7.1M12.288,1.5a6.344,6.344,0,0,1,5.6,5.6m-.7,5.625v2.115a1.41,1.41,0,0,1-1.537,1.41,13.951,13.951,0,0,1-6.084-2.164,13.746,13.746,0,0,1-4.23-4.23A13.951,13.951,0,0,1,3.174,3.742,1.41,1.41,0,0,1,4.576,2.2H6.691A1.41,1.41,0,0,1,8.1,3.417,9.051,9.051,0,0,0,8.595,5.4a1.41,1.41,0,0,1-.317,1.487l-.9.9a11.279,11.279,0,0,0,4.23,4.23l.9-.9a1.41,1.41,0,0,1,1.487-.317,9.051,9.051,0,0,0,1.981.493A1.41,1.41,0,0,1,17.188,12.723Z" transform="translate(-3.168 -1.5)" fill="#fff"/>
</svg>
