<svg xmlns="http://www.w3.org/2000/svg" width="53.842" height="53.842" viewBox="0 0 53.842 53.842">
  <g id="loc" transform="translate(-186.086 -299.286)">
    <g id="maps-and-flags" transform="translate(186.086 299.286)">
      <path id="Path_1636" data-name="Path 1636" d="M26.921,53.842A26.921,26.921,0,1,1,53.842,26.921,26.952,26.952,0,0,1,26.921,53.842Z" transform="translate(0 0)" fill="#f2ae1b"/>
      <path id="Path_1637" data-name="Path 1637" d="M39.484,57.292A26.876,26.876,0,0,1,18.249,13.884,26.9,26.9,0,1,0,48.156,55.832,26.754,26.754,0,0,1,39.484,57.292Z" transform="translate(0 -12.424)" fill="#bd8100"/>
    </g>
    <g id="pin" transform="translate(199.545 308.532)">
      <g id="Group_371" data-name="Group 371" transform="translate(0 0)">
        <path id="Path_1634" data-name="Path 1634" d="M87.307,9.2A13.1,13.1,0,0,0,78.773.663,14.536,14.536,0,0,0,74.506,0a13.2,13.2,0,0,0-7.974,2.631,13.479,13.479,0,0,0-5.489,10.833,13.341,13.341,0,0,0,2.693,8.078L74.506,35.35,85.277,21.541A13.625,13.625,0,0,0,87.307,9.2Zm-12.8,11.516a7.25,7.25,0,1,1,7.25-7.25A7.257,7.257,0,0,1,74.506,20.713Z" transform="translate(-61.043 0)" fill="#fff9f1"/>
      </g>
      <path id="Path_1635" data-name="Path 1635" d="M266.814,21.542,256.043,35.35V20.713a7.25,7.25,0,1,0,0-14.5V0a14.538,14.538,0,0,1,4.267.663A13.1,13.1,0,0,1,268.844,9.2,13.625,13.625,0,0,1,266.814,21.542Z" transform="translate(-242.58 0)" fill="#fff"/>
    </g>
  </g>
</svg>
