<svg xmlns="http://www.w3.org/2000/svg" width="19.733" height="24.969" viewBox="0 0 19.733 24.969">
  <g id="user" transform="translate(-47.85)">
    <g id="Group_121" data-name="Group 121" transform="translate(47.85)">
      <g id="Group_120" data-name="Group 120">
        <path id="Path_1526" data-name="Path 1526" d="M62.969,220.526a7.552,7.552,0,0,1-1.153,1.172,8.272,8.272,0,0,1,4.166,7.176c0,1.657-3.631,2.955-8.266,2.955s-8.266-1.3-8.266-2.955a8.272,8.272,0,0,1,4.166-7.176,7.555,7.555,0,0,1-1.153-1.172,9.868,9.868,0,0,0-4.613,8.348c0,1.064.582,2.546,3.357,3.567a19.552,19.552,0,0,0,6.51.988,19.552,19.552,0,0,0,6.51-.988c2.774-1.021,3.357-2.5,3.357-3.567A9.868,9.868,0,0,0,62.969,220.526Z" transform="translate(-47.85 -208.461)" fill="#25408f"/>
        <path id="Path_1527" data-name="Path 1527" d="M133.089,13.12c3.109,0,5.5-3.006,5.5-6.56S136.2,0,133.089,0s-5.5,3.006-5.5,6.56S129.981,13.12,133.089,13.12Zm0-11.52c2.153,0,3.9,2.225,3.9,4.96s-1.751,4.96-3.9,4.96-3.9-2.225-3.9-4.96S130.936,1.6,133.089,1.6Z" transform="translate(-123.223 0)" fill="#25408f"/>
      </g>
    </g>
  </g>
</svg>
